<svg xmlns="http://www.w3.org/2000/svg" viewBox="0 0 640 320"><g stroke="#101827" stroke-width="4" stroke-linejoin="round" stroke-linecap="round"><rect x="0" y="0" width="640" height="320" rx="0" fill="#111b31"/><path d="M0 185 Q100 106 224 173 Q384 122 640 160 V320H0Z" fill="#302b49"/><rect x="0" y="237" width="640" height="83" rx="0" fill="#171d32"/><path d="M320 238 0 320" fill="none"/><path d="M320 238 80 320" fill="none"/><path d="M320 238 160 320" fill="none"/><path d="M320 238 240 320" fill="none"/><path d="M320 238 320 320" fill="none"/><path d="M320 238 400 320" fill="none"/><path d="M320 238 480 320" fill="none"/><path d="M320 238 560 320" fill="none"/><path d="M320 238 640 320" fill="none"/><text x="65" y="80" stroke="none" fill="#8976b3" font-family="sans-serif" font-size="24">×</text><text x="193" y="140" stroke="none" fill="#8976b3" font-family="sans-serif" font-size="24">2</text><text x="321" y="80" stroke="none" fill="#8976b3" font-family="sans-serif" font-size="24">＋</text><text x="449" y="140" stroke="none" fill="#8976b3" font-family="sans-serif" font-size="24">9</text><text x="577" y="80" stroke="none" fill="#8976b3" font-family="sans-serif" font-size="24">＝</text></g></svg>
