<svg xmlns="http://www.w3.org/2000/svg" viewBox="0 0 640 320"><g stroke="#101827" stroke-width="4" stroke-linejoin="round" stroke-linecap="round"><rect x="0" y="0" width="640" height="320" rx="0" fill="#829dbd"/><path d="M0 185 Q100 106 224 173 Q384 122 640 160 V320H0Z" fill="#c7d6e6"/><rect x="0" y="237" width="640" height="83" rx="0" fill="#5e769b"/><ellipse cx="50" cy="201" rx="130" ry="23" fill="#dce6ea"/><ellipse cx="315" cy="201" rx="130" ry="23" fill="#dce6ea"/><ellipse cx="575" cy="201" rx="130" ry="23" fill="#dce6ea"/><rect x="146" y="95" width="26" height="92" rx="5" fill="#e4e4d2"/><path d="M143 95 159 60 175 95Z" fill="#b8a571"/><rect x="186" y="112" width="26" height="92" rx="5" fill="#e4e4d2"/><path d="M183 112 199 77 215 112Z" fill="#b8a571"/><rect x="226" y="129" width="26" height="92" rx="5" fill="#e4e4d2"/><path d="M223 129 239 94 255 129Z" fill="#b8a571"/><rect x="266" y="95" width="26" height="92" rx="5" fill="#e4e4d2"/><path d="M263 95 279 60 295 95Z" fill="#b8a571"/><rect x="306" y="112" width="26" height="92" rx="5" fill="#e4e4d2"/><path d="M303 112 319 77 335 112Z" fill="#b8a571"/><rect x="346" y="129" width="26" height="92" rx="5" fill="#e4e4d2"/><path d="M343 129 359 94 375 129Z" fill="#b8a571"/><rect x="386" y="95" width="26" height="92" rx="5" fill="#e4e4d2"/><path d="M383 95 399 60 415 95Z" fill="#b8a571"/><rect x="426" y="112" width="26" height="92" rx="5" fill="#e4e4d2"/><path d="M423 112 439 77 455 112Z" fill="#b8a571"/><rect x="466" y="129" width="26" height="92" rx="5" fill="#e4e4d2"/><path d="M463 129 479 94 495 129Z" fill="#b8a571"/></g></svg>
