<svg xmlns="http://www.w3.org/2000/svg" viewBox="0 0 240 220"><g stroke="#101827" stroke-width="4" stroke-linejoin="round" stroke-linecap="round"><rect x="66" y="113" width="106" height="82" rx="16" fill="#c4ae79"/><polygon points="120.0,29.0 166.6,62.9 148.8,117.6 91.2,117.6 73.4,62.9" fill="#decd8f"/><ellipse cx="105" cy="92" rx="8" ry="10" fill="#fff9ed"/><ellipse cx="135" cy="92" rx="8" ry="10" fill="#fff9ed"/><ellipse cx="107" cy="93" rx="3" ry="5" fill="#101827"/><ellipse cx="133" cy="93" rx="3" ry="5" fill="#101827"/><path d="M110 112 Q120 119 130 112" fill="none"/><polygon points="121.0,123.0 145.7,141.0 136.3,170.0 105.7,170.0 96.3,141.0" fill="#fff1c0"/><rect x="186" y="72" width="10" height="132" rx="5" fill="#786846"/><rect x="161" y="73" width="61" height="40" rx="5" fill="#bcb9a4"/><ellipse cx="53" cy="157" rx="17" ry="25" fill="#c4ae79"/></g></svg>
