<svg xmlns="http://www.w3.org/2000/svg" viewBox="0 0 240 220"><g stroke="#101827" stroke-width="4" stroke-linejoin="round" stroke-linecap="round"><ellipse cx="120" cy="117" rx="60" ry="60" fill="#25263c"/><ellipse cx="120" cy="117" rx="39" ry="39" fill="#080d17"/><ellipse cx="109" cy="107" rx="7" ry="9" fill="#f9e9ff"/><ellipse cx="136" cy="107" rx="7" ry="9" fill="#f9e9ff"/><path d="M102 134 Q120 147 140 132" fill="none"/><polygon points="205.0,93.0 219.7,118.5 190.3,118.5" fill="#b4a5dd"/><text x="205" y="116" stroke="none" text-anchor="middle" fill="#fff9ed" font-family="sans-serif" font-size="18">2</text><polygon points="180.1,153.1 194.8,178.6 165.4,178.6" fill="#b4a5dd"/><text x="180" y="176" stroke="none" text-anchor="middle" fill="#fff9ed" font-family="sans-serif" font-size="18">3</text><polygon points="120.0,178.0 134.7,203.5 105.3,203.5" fill="#b4a5dd"/><text x="120" y="201" stroke="none" text-anchor="middle" fill="#fff9ed" font-family="sans-serif" font-size="18">4</text><polygon points="59.9,153.1 74.6,178.6 45.2,178.6" fill="#b4a5dd"/><text x="60" y="176" stroke="none" text-anchor="middle" fill="#fff9ed" font-family="sans-serif" font-size="18">5</text><polygon points="35.0,93.0 49.7,118.5 20.3,118.5" fill="#b4a5dd"/><text x="35" y="116" stroke="none" text-anchor="middle" fill="#fff9ed" font-family="sans-serif" font-size="18">6</text><polygon points="59.9,32.9 74.6,58.4 45.2,58.4" fill="#b4a5dd"/><text x="60" y="56" stroke="none" text-anchor="middle" fill="#fff9ed" font-family="sans-serif" font-size="18">7</text><polygon points="120.0,8.0 134.7,33.5 105.3,33.5" fill="#b4a5dd"/><text x="120" y="31" stroke="none" text-anchor="middle" fill="#fff9ed" font-family="sans-serif" font-size="18">8</text><polygon points="180.1,32.9 194.8,58.4 165.4,58.4" fill="#b4a5dd"/><text x="180" y="56" stroke="none" text-anchor="middle" fill="#fff9ed" font-family="sans-serif" font-size="18">9</text></g></svg>
